Coordinates
version=1
nRows=11
nColumns=36
inDegrees=yes

Units are S.I. units (second, meters, Newtons, ...)
If the header above contains a line with 'inDegrees', this indicates whether rotational values are in degrees (yes) or radians (no).

endheader
time	pelvis_tilt	pelvis_list	pelvis_rotation	pelvis_tx	pelvis_ty	pelvis_tz	hip_flexion_r	hip_adduction_r	hip_rotation_r	knee_angle_r	knee_angle_r_beta	ankle_angle_r	subtalar_angle_r	mtp_angle_r	hip_flexion_l	hip_adduction_l	hip_rotation_l	knee_angle_l	knee_angle_l_beta	ankle_angle_l	subtalar_angle_l	mtp_angle_l	lumbar_extension	lumbar_bending	lumbar_rotation	arm_flex_r	arm_add_r	arm_rot_r	elbow_flex_r	pro_sup_r	arm_flex_l	arm_add_l	arm_rot_l	elbow_flex_l	pro_sup_l
      0.00000000	     -0.30761018	      0.64895087	      0.10170837	      0.11617248	      0.88342158	      0.03983204	      5.04255856	     -7.53638788	     -4.77243349	      8.30160097	      0.14489027	      4.51441165	    -12.83843760	     -4.99338380	      6.40460225	     -5.73978984	     -2.43450490	      6.79703963	      0.11863072	      6.47274082	     -1.79049107	     -4.99338380	     -5.19024498	      0.45965565	     -4.71226007	     -2.29650791	    -11.94537448	     16.41901617	     25.33135316	     69.53173747	     -3.55372131	    -15.29057520	     -0.06282443	     33.25718352	     73.79699288
      0.01666670	     -0.26192030	      1.07478072	      0.59715694	      0.11620054	      0.88485549	      0.04071033	      5.36181626	     -7.55548428	     -4.49572692	      8.04548182	      0.14042015	      6.70669428	    -13.00204482	     -5.45357826	      6.09678708	     -4.84495446	     -1.81853613	      6.41452049	      0.11195450	      6.91825234	     -2.22700977	     -5.45357826	     -4.33496851	      0.05633965	     -4.62603869	     -1.95625863	    -11.03362393	     10.11172915	     25.35555587	     71.08949635	     -2.45757143	    -14.33949796	     -5.82977273	     33.79620190	     75.40681074
      0.03333330	     -0.68612047	      1.66417467	      0.76219925	      0.11457396	      0.88773380	      0.04293571	      6.09135562	     -8.16102018	     -4.64060299	      7.95073044	      0.13876642	      6.42065226	    -12.53299000	     -6.42254418	      6.56556668	     -4.30420846	     -1.97079147	      6.06713649	      0.10589151	      6.28404453	     -2.68222519	     -6.42254418	     -3.86177935	     -0.72574328	     -4.22100273	     -1.98225104	    -10.41755477	      3.24258896	     27.15885585	     77.79549238	     -1.23638828	    -14.07328860	     -9.15512269	     34.57207280	     80.32116144
      0.05000000	     -0.21250738	      1.99030988	      1.19150242	      0.11292030	      0.88710756	      0.04283616	      5.86102944	     -8.87674232	     -3.97304984	      8.14152814	      0.14209647	      6.55430023	    -11.63954163	     -6.59306593	      6.25855840	     -3.94291037	     -1.82499686	      5.83672476	      0.10187006	      5.79654713	     -3.36153088	     -6.59306593	     -4.42442653	     -1.11925243	     -4.47870596	     -1.21500250	    -10.56918961	      1.65331738	     28.51574069	     75.70840958	     -0.13671313	    -14.03032646	    -10.37542984	     35.66971253	     77.92096433
      0.06666670	     -0.05005169	      2.05107403	      1.44631256	      0.11020429	      0.88969537	      0.04385425	      6.04720869	     -9.16874894	     -3.22406037	      8.42037733	      0.14696331	      6.32812056	    -11.06497061	     -6.65692370	      6.27606577	     -3.91508871	     -1.53245386	      5.55368040	      0.09693001	      4.95712704	     -4.06631734	     -6.65692370	     -4.86835812	     -1.15603421	     -4.59804335	     -0.59291231	    -10.54503818	     -0.03180801	     30.11378965	     74.88459251	      0.75806352	    -13.68388447	    -11.83109736	     36.73416704	     76.79940270
      0.08333330	      0.10788015	      2.09304635	      1.68881461	      0.10789575	      0.88834496	      0.04452477	      6.27661825	     -9.38217483	     -2.38398358	      8.71978731	      0.15218900	      6.12618626	    -10.34049422	     -6.80927470	      6.49954706	     -3.91591401	     -0.88681082	      5.59558134	      0.09766132	      4.52351108	     -4.08600145	     -6.80927470	     -5.28722690	     -1.20851211	     -4.63842470	     -0.15037756	    -10.32831385	     -1.93892365	     32.09197204	     73.38001007	      1.46374970	    -13.32431358	    -13.58040196	     38.07786012	     74.71084468
      0.10000000	      0.12454196	      2.02644440	      2.01000539	      0.10534681	      0.88722512	      0.04554897	      6.66478422	     -9.46851233	     -1.80006824	      8.84272977	      0.15433475	      5.74496624	    -10.04938080	     -6.92559795	      6.92646983	     -3.98800124	     -0.19775924	      5.57722058	      0.09734086	      3.88731806	     -4.46594415	     -6.92559795	     -5.64527761	     -1.13406466	     -4.82303230	      0.35391308	    -10.15871302	     -3.09462915	     33.87316306	     72.29623396	      2.16404834	    -13.05656446	    -14.67368215	     39.23316870	     73.08650578
      0.11666670	      0.10023482	      1.98306665	      2.24513753	      0.10617647	      0.88311446	      0.04746100	      6.78421249	     -9.48895051	     -1.21842479	      8.53270848	      0.14892386	      5.43319708	     -9.75966035	     -7.13387810	      7.19356012	     -4.06805422	      0.40088938	      5.44773611	      0.09508093	      3.33436565	     -5.22052955	     -7.13387810	     -5.76715891	     -1.16868160	     -4.92856908	      0.57013873	     -9.65786488	     -6.35198615	     35.56845494	     81.63244874	      2.69861786	    -12.56956832	    -16.97165748	     40.20252407	     77.62862075
      0.13333330	     -0.01203248	      1.92389468	      2.39727565	      0.10700940	      0.88025331	      0.04932681	      6.75943209	     -9.41423586	     -0.64741001	      7.90550589	      0.13797711	      5.12842388	     -9.80342596	     -7.14773549	      7.44215346	     -4.24948138	      0.58330762	      5.45392153	      0.09518889	      3.00883397	     -5.41479621	     -7.14773549	     -5.65234666	     -1.22717384	     -5.10457241	      0.85567403	     -9.56052230	     -6.23187995	     36.88873772	     80.72419614	      2.94282107	    -12.51203650	    -16.80140009	     40.81085818	     76.79179007
      0.15000000	     -0.12417117	      1.86721824	      2.49152441	      0.10662186	      0.87740801	      0.05256547	      6.53752875	     -9.27236999	     -0.31005941	      7.08346705	      0.12362982	      5.09804744	     -9.58052187	     -7.21793376	      7.67708230	     -4.43982413	      0.99562448	      5.45796771	      0.09525951	      2.58637810	     -6.24058993	     -7.21793376	     -5.52809357	     -1.35973224	     -5.16925255	      0.85927226	     -9.54261539	     -5.63017658	     38.47998742	     79.10781120	      3.15012666	    -12.53104085	    -16.14659718	     41.29258930	     75.37342501
      0.16666670	     -0.39390217	      1.82478592	      2.53238178	      0.10542268	      0.87739208	      0.05467510	      6.46486872	     -9.06950503	     -0.05543230	      6.18531376	      0.10795409	      5.09272742	     -9.39097987	     -7.23004848	      8.02468201	     -4.65094083	      1.10253004	      5.45579610	      0.09522161	      2.36291782	     -6.37875820	     -7.23004848	     -5.17396429	     -1.45877041	     -5.48156255	      0.98616586	     -9.33459041	     -5.50140344	     39.67598406	     78.76255517	      3.11441924	    -12.44551531	    -15.82524465	     41.59728288	     75.07072682
